# Apple ModelIO OBJ File: baseVentilador
mtllib baseVentilador.mtl
g 
v -8.76084 -34.0111 -33.7141
v -8.76084 -34.0111 -38.0572
v 7.24336 -34.0111 -38.0572
v 7.24336 -34.0111 -33.7141
v -8.76084 -28.5332 -33.7141
v 7.24336 -28.5332 -33.7141
v 7.24336 -28.5332 -38.0572
v -8.76084 -28.5332 -38.0572
v -0.883937 8.16901 -0.770153
v 2.83156 8.16901 -3.88785
v 3.67386 8.16901 -2.42905
v 3.96636 8.16901 -0.770153
v -0.041736 8.16901 -5.54675
v 1.54116 8.16901 -4.97065
v -3.30904 8.16901 -4.97065
v -1.72614 8.16901 -5.54675
v -5.44174 8.16901 -2.42905
v -4.59944 8.16901 -3.88785
v -5.44174 8.16901 0.888747
v -5.73424 8.16901 -0.770153
v -3.30904 8.16901 3.43035
v -4.59944 8.16901 2.34755
v -0.041736 8.16901 4.00645
v -1.72614 8.16901 4.00645
v 2.83156 8.16901 2.34755
v 1.54116 8.16901 3.43035
v 3.67386 8.16901 0.888747
v 3.67386 10.0066 -2.42905
v 3.96636 10.0066 -0.770152
v 2.83156 10.0066 -3.88785
v 1.54116 10.0066 -4.97065
v -0.041736 10.0066 -5.54675
v -1.72614 10.0066 -5.54675
v -3.30904 10.0066 -4.97065
v -4.59944 10.0066 -3.88785
v -5.44174 10.0066 -2.42905
v -5.73424 10.0066 -0.770152
v -5.44174 10.0066 0.888747
v -4.59944 10.0066 2.34755
v -3.30904 10.0066 3.43035
v -1.72614 10.0066 4.00645
v -0.041736 10.0066 4.00645
v 1.54116 10.0066 3.43035
v 2.83156 10.0066 2.34755
v 3.67386 10.0066 0.888747
v 3.67386 11.8441 -2.42905
v 3.96636 11.8441 -0.770152
v 2.83156 11.8441 -3.88785
v 1.54116 11.8441 -4.97065
v -0.041736 11.8441 -5.54675
v -1.72614 11.8441 -5.54675
v -3.30904 11.8441 -4.97065
v -4.59944 11.8441 -3.88785
v -5.44174 11.8441 -2.42905
v -5.73424 11.8441 -0.770152
v -5.44174 11.8441 0.888747
v -4.59944 11.8441 2.34755
v -3.30904 11.8441 3.43035
v -1.72614 11.8441 4.00645
v -0.041736 11.8441 4.00645
v 1.54116 11.8441 3.43035
v 2.83156 11.8441 2.34755
v 3.67386 11.8441 0.888747
v 3.67386 13.6817 -2.42905
v 3.96636 13.6817 -0.770152
v 2.83156 13.6817 -3.88785
v 1.54116 13.6817 -4.97065
v -0.041736 13.6817 -5.54675
v -1.72614 13.6817 -5.54675
v -3.30904 13.6817 -4.97065
v -4.59944 13.6817 -3.88785
v -5.44174 13.6817 -2.42905
v -5.73424 13.6817 -0.770152
v -5.44174 13.6817 0.888748
v -4.59944 13.6817 2.34755
v -3.30904 13.6817 3.43035
v -1.72614 13.6817 4.00645
v -0.041736 13.6817 4.00645
v 1.54116 13.6817 3.43035
v 2.83156 13.6817 2.34755
v 3.67386 13.6817 0.888748
v 3.67386 15.5192 -2.42905
v 3.96636 15.5192 -0.770151
v 2.83156 15.5192 -3.88785
v 1.54116 15.5192 -4.97065
v -0.041736 15.5192 -5.54675
v -1.72614 15.5192 -5.54675
v -3.30904 15.5192 -4.97065
v -4.59944 15.5192 -3.88785
v -5.44174 15.5192 -2.42905
v -5.73424 15.5192 -0.770151
v -5.44174 15.5192 0.888748
v -4.59944 15.5192 2.34755
v -3.30904 15.5192 3.43035
v -1.72614 15.5192 4.00645
v -0.041736 15.5192 4.00645
v 1.54116 15.5192 3.43035
v 2.83156 15.5192 2.34755
v 3.67386 15.5192 0.888748
v 3.67386 17.3567 -2.42905
v 3.96636 17.3567 -0.770151
v 2.83156 17.3567 -3.88785
v 1.54116 17.3567 -4.97065
v -0.041736 17.3567 -5.54675
v -1.72614 17.3567 -5.54675
v -3.30904 17.3567 -4.97065
v -4.59944 17.3567 -3.88785
v -5.44174 17.3567 -2.42905
v -5.73424 17.3567 -0.770151
v -5.44174 17.3567 0.888748
v -4.59944 17.3567 2.34755
v -3.30904 17.3567 3.43035
v -1.72614 17.3567 4.00645
v -0.041736 17.3567 4.00645
v 1.54116 17.3567 3.43035
v 2.83156 17.3567 2.34755
v 3.67386 17.3567 0.888748
v -0.883937 17.3567 -0.770151
vn -0.5774 -0.5774 0.5773
vn -0.5773 -0.5774 -0.5774
vn 0.5774 -0.5774 -0.5773
vn 0.5773 -0.5774 0.5774
vn -0.5773 0.5774 0.5774
vn 0.5774 0.5774 0.5773
vn 0.5773 0.5774 -0.5774
vn -0.5774 0.5774 -0.5773
vn -0.5773 -0.5774 0.5774
vn 0.5774 -0.5773 0.5774
vn 0.5773 0.5774 0.5774
vn -0.5774 0.5773 0.5774
vn 0.5774 -0.5774 0.5773
vn 0.5774 -0.5773 -0.5774
vn 0.5774 0.5774 -0.5773
vn 0.5774 0.5773 0.5774
vn 0.5773 -0.5774 -0.5774
vn -0.5774 -0.5773 -0.5774
vn -0.5773 0.5774 -0.5774
vn 0.5774 0.5773 -0.5774
vn -0.5774 -0.5774 -0.5773
vn -0.5774 -0.5773 0.5774
vn -0.5774 0.5774 0.5773
vn -0.5774 0.5773 -0.5774
vn 0 -1 -0
vn 0.5687 -0.67 -0.4772
vn 0.6976 -0.67 -0.2539
vn 0.7423 -0.6701 0
vn 0.1289 -0.67 -0.7311
vn 0.3712 -0.67 -0.6429
vn -0.3711 -0.6701 -0.6429
vn -0.1289 -0.67 -0.7311
vn -0.6976 -0.67 -0.2539
vn -0.5686 -0.6701 -0.4771
vn -0.6976 -0.67 0.2539
vn -0.7423 -0.67 -0
vn -0.3712 -0.67 0.6429
vn -0.5687 -0.67 0.4772
vn 0.1289 -0.67 0.7311
vn -0.1289 -0.67 0.7311
vn 0.5687 -0.67 0.4772
vn 0.3712 -0.67 0.6429
vn 0.6975 -0.6701 0.2539
vn 0.6976 -0.67 -0.254
vn 0.9397 0 -0.342
vn 1 0 0
vn 0.766 0 -0.6428
vn 0.5 0 -0.866
vn 0.129 -0.67 -0.7311
vn 0.1736 0 -0.9848
vn -0.1287 -0.67 -0.7311
vn -0.1736 0 -0.9848
vn -0.5 0 -0.866
vn -0.766 0 -0.6428
vn -0.6977 -0.67 -0.2538
vn -0.9397 0 -0.342
vn -1 0 0
vn -0.6976 -0.67 0.254
vn -0.9397 0 0.342
vn -0.5686 -0.67 0.4773
vn -0.766 0 0.6428
vn -0.5 -0 0.866
vn -0.1736 -0 0.9848
vn 0.1736 -0 0.9848
vn 0.3713 -0.67 0.6428
vn 0.5 -0 0.866
vn 0.5688 -0.67 0.477
vn 0.766 -0 0.6428
vn 0.6975 -0.6701 0.2538
vn 0.9397 -0 0.342
vn 0.6976 0.67 -0.2538
vn 0.7423 0.6701 -0
vn 0.5688 0.67 -0.4771
vn 0.3712 0.67 -0.6429
vn 0.1289 0.67 -0.7311
vn -0.1289 0.67 -0.7311
vn -0.3711 0.6701 -0.6429
vn -0.5686 0.6701 -0.4771
vn -0.6976 0.67 -0.254
vn -0.7423 0.67 -0
vn -0.6977 0.67 0.2538
vn -0.5686 0.67 0.4773
vn -0.3711 0.67 0.643
vn -0.1289 0.67 0.7311
vn 0.1289 0.67 0.7311
vn 0.3712 0.67 0.6429
vn 0.5688 0.67 0.4771
vn 0.6974 0.6701 0.254
vn 0 1 0
vn 0.6975 0.6701 0.2539
vn 0.6976 0.67 -0.2539
vn 0.5687 0.67 -0.4772
vn -0.6976 0.67 -0.2539
vn -0.6976 0.67 0.2539
vn -0.5687 0.67 0.4772
vn -0.3712 0.67 0.6429
vn 0.5687 0.67 0.4772
vt 16.0042 0
vt 16.0042 4.3431
vt 0 4.3431
vt 0 0
vt 16.0042 5.4779
vt 0 5.4779
vt 4.3431 0
vt 4.3431 5.4779
vt 4.8503 4.7766
vt 8.5658 1.6589
vt 9.4081 3.1177
vt 9.7006 4.7766
vt 5.6925 0
vt 7.2754 0.5761
vt 2.4251 0.5761
vt 4.008 0
vt 0.2925 3.1177
vt 1.1348 1.6589
vt 0.2925 6.4355
vt 0 4.7766
vt 2.4251 8.9771
vt 1.1348 7.8943
vt 5.6925 9.5532
vt 4.008 9.5532
vt 8.5658 7.8943
vt 7.2754 8.9771
vt 9.4081 6.4355
vt 22.8564 0
vt 24.5495 0
vt 24.5495 1.8375
vt 22.8564 1.8375
vt 26.2426 0
vt 26.2426 1.8375
vt 27.9356 0
vt 27.9356 1.8375
vt 29.6287 0
vt 29.6287 1.8375
vt -0.8465 0
vt 0.8465 0
vt 0.8465 1.8375
vt -0.8465 1.8375
vt 2.5396 0
vt 2.5396 1.8375
vt 4.2327 0
vt 4.2327 1.8375
vt 5.9257 0
vt 5.9257 1.8375
vt 7.6188 0
vt 7.6188 1.8375
vt 9.3119 0
vt 9.3119 1.8375
vt 11.0049 0
vt 11.0049 1.8375
vt 12.698 0
vt 12.698 1.8375
vt 14.3911 0
vt 14.3911 1.8375
vt 16.0842 0
vt 16.0842 1.8375
vt 17.7772 0
vt 17.7772 1.8375
vt 19.4703 0
vt 19.4703 1.8375
vt 21.1634 0
vt 21.1634 1.8375
vt 24.5495 3.6751
vt 22.8564 3.6751
vt 26.2426 3.6751
vt 27.9356 3.6751
vt 29.6287 3.6751
vt 0.8465 3.6751
vt -0.8465 3.6751
vt 2.5396 3.6751
vt 4.2327 3.6751
vt 5.9257 3.6751
vt 7.6188 3.6751
vt 9.3119 3.6751
vt 11.0049 3.6751
vt 12.698 3.6751
vt 14.3911 3.6751
vt 16.0842 3.6751
vt 17.7772 3.6751
vt 19.4703 3.6751
vt 21.1634 3.6751
vt 24.5495 5.5126
vt 22.8564 5.5126
vt 26.2426 5.5126
vt 27.9356 5.5126
vt 29.6287 5.5126
vt 0.8465 5.5126
vt -0.8465 5.5126
vt 2.5396 5.5126
vt 4.2327 5.5126
vt 5.9257 5.5126
vt 7.6188 5.5126
vt 9.3119 5.5126
vt 11.0049 5.5126
vt 12.698 5.5126
vt 14.3911 5.5126
vt 16.0842 5.5126
vt 17.7772 5.5126
vt 19.4703 5.5126
vt 21.1634 5.5126
vt 24.5495 7.3502
vt 22.8564 7.3502
vt 26.2426 7.3502
vt 27.9356 7.3502
vt 29.6287 7.3502
vt 0.8465 7.3502
vt -0.8465 7.3502
vt 2.5396 7.3502
vt 4.2327 7.3502
vt 5.9257 7.3502
vt 7.6188 7.3502
vt 9.3119 7.3502
vt 11.0049 7.3502
vt 12.698 7.3502
vt 14.3911 7.3502
vt 16.0842 7.3502
vt 17.7772 7.3502
vt 19.4703 7.3502
vt 21.1634 7.3502
vt 24.5495 9.1877
vt 22.8564 9.1877
vt 26.2426 9.1877
vt 27.9356 9.1877
vt 29.6287 9.1877
vt 0.8465 9.1877
vt -0.8465 9.1877
vt 2.5396 9.1877
vt 4.2327 9.1877
vt 5.9257 9.1877
vt 7.6188 9.1877
vt 9.3119 9.1877
vt 11.0049 9.1877
vt 12.698 9.1877
vt 14.3911 9.1877
vt 16.0842 9.1877
vt 17.7772 9.1877
vt 19.4703 9.1877
vt 21.1634 9.1877
usemtl material_1
f 1/1/1 2/2/2 3/3/3 4/4/4 
f 5/4/5 6/1/6 7/2/7 8/3/8 
f 1/4/9 4/1/10 6/5/11 5/6/12 
f 4/4/13 3/7/14 7/8/15 6/6/16 
f 3/4/17 2/1/18 8/5/19 7/6/20 
f 2/4/21 1/7/22 5/8/23 8/6/24 
f 9/9/25 10/10/26 11/11/27 12/12/28 
f 9/9/25 13/13/29 14/14/30 10/10/26 
f 9/9/25 15/15/31 16/16/32 13/13/29 
f 9/9/25 17/17/33 18/18/34 15/15/31 
f 9/9/25 19/19/35 20/20/36 17/17/33 
f 9/9/25 21/21/37 22/22/38 19/19/35 
f 9/9/25 23/23/39 24/24/40 21/21/37 
f 9/9/25 25/25/41 26/26/42 23/23/39 
f 9/9/25 12/12/28 27/27/43 25/25/41 
f 12/28/28 11/29/44 28/30/45 29/31/46 
f 11/29/44 10/32/26 30/33/47 28/30/45 
f 10/32/26 14/34/30 31/35/48 30/33/47 
f 14/34/30 13/36/49 32/37/50 31/35/48 
f 13/38/49 16/39/51 33/40/52 32/41/50 
f 16/39/51 15/42/31 34/43/53 33/40/52 
f 15/42/31 18/44/34 35/45/54 34/43/53 
f 18/44/34 17/46/55 36/47/56 35/45/54 
f 17/46/55 20/48/36 37/49/57 36/47/56 
f 20/48/36 19/50/58 38/51/59 37/49/57 
f 19/50/58 22/52/60 39/53/61 38/51/59 
f 22/52/60 21/54/37 40/55/62 39/53/61 
f 21/54/37 24/56/40 41/57/63 40/55/62 
f 24/56/40 23/58/39 42/59/64 41/57/63 
f 23/58/39 26/60/65 43/61/66 42/59/64 
f 26/60/65 25/62/67 44/63/68 43/61/66 
f 25/62/67 27/64/69 45/65/70 44/63/68 
f 27/64/69 12/28/28 29/31/46 45/65/70 
f 29/31/46 28/30/45 46/66/45 47/67/46 
f 28/30/45 30/33/47 48/68/47 46/66/45 
f 30/33/47 31/35/48 49/69/48 48/68/47 
f 31/35/48 32/37/50 50/70/50 49/69/48 
f 32/41/50 33/40/52 51/71/52 50/72/50 
f 33/40/52 34/43/53 52/73/53 51/71/52 
f 34/43/53 35/45/54 53/74/54 52/73/53 
f 35/45/54 36/47/56 54/75/56 53/74/54 
f 36/47/56 37/49/57 55/76/57 54/75/56 
f 37/49/57 38/51/59 56/77/59 55/76/57 
f 38/51/59 39/53/61 57/78/61 56/77/59 
f 39/53/61 40/55/62 58/79/62 57/78/61 
f 40/55/62 41/57/63 59/80/63 58/79/62 
f 41/57/63 42/59/64 60/81/64 59/80/63 
f 42/59/64 43/61/66 61/82/66 60/81/64 
f 43/61/66 44/63/68 62/83/68 61/82/66 
f 44/63/68 45/65/70 63/84/70 62/83/68 
f 45/65/70 29/31/46 47/67/46 63/84/70 
f 47/67/46 46/66/45 64/85/45 65/86/46 
f 46/66/45 48/68/47 66/87/47 64/85/45 
f 48/68/47 49/69/48 67/88/48 66/87/47 
f 49/69/48 50/70/50 68/89/50 67/88/48 
f 50/72/50 51/71/52 69/90/52 68/91/50 
f 51/71/52 52/73/53 70/92/53 69/90/52 
f 52/73/53 53/74/54 71/93/54 70/92/53 
f 53/74/54 54/75/56 72/94/56 71/93/54 
f 54/75/56 55/76/57 73/95/57 72/94/56 
f 55/76/57 56/77/59 74/96/59 73/95/57 
f 56/77/59 57/78/61 75/97/61 74/96/59 
f 57/78/61 58/79/62 76/98/62 75/97/61 
f 58/79/62 59/80/63 77/99/63 76/98/62 
f 59/80/63 60/81/64 78/100/64 77/99/63 
f 60/81/64 61/82/66 79/101/66 78/100/64 
f 61/82/66 62/83/68 80/102/68 79/101/66 
f 62/83/68 63/84/70 81/103/70 80/102/68 
f 63/84/70 47/67/46 65/86/46 81/103/70 
f 65/86/46 64/85/45 82/104/45 83/105/46 
f 64/85/45 66/87/47 84/106/47 82/104/45 
f 66/87/47 67/88/48 85/107/48 84/106/47 
f 67/88/48 68/89/50 86/108/50 85/107/48 
f 68/91/50 69/90/52 87/109/52 86/110/50 
f 69/90/52 70/92/53 88/111/53 87/109/52 
f 70/92/53 71/93/54 89/112/54 88/111/53 
f 71/93/54 72/94/56 90/113/56 89/112/54 
f 72/94/56 73/95/57 91/114/57 90/113/56 
f 73/95/57 74/96/59 92/115/59 91/114/57 
f 74/96/59 75/97/61 93/116/61 92/115/59 
f 75/97/61 76/98/62 94/117/62 93/116/61 
f 76/98/62 77/99/63 95/118/63 94/117/62 
f 77/99/63 78/100/64 96/119/64 95/118/63 
f 78/100/64 79/101/66 97/120/66 96/119/64 
f 79/101/66 80/102/68 98/121/68 97/120/66 
f 80/102/68 81/103/70 99/122/70 98/121/68 
f 81/103/70 65/86/46 83/105/46 99/122/70 
f 83/105/46 82/104/45 100/123/71 101/124/72 
f 82/104/45 84/106/47 102/125/73 100/123/71 
f 84/106/47 85/107/48 103/126/74 102/125/73 
f 85/107/48 86/108/50 104/127/75 103/126/74 
f 86/110/50 87/109/52 105/128/76 104/129/75 
f 87/109/52 88/111/53 106/130/77 105/128/76 
f 88/111/53 89/112/54 107/131/78 106/130/77 
f 89/112/54 90/113/56 108/132/79 107/131/78 
f 90/113/56 91/114/57 109/133/80 108/132/79 
f 91/114/57 92/115/59 110/134/81 109/133/80 
f 92/115/59 93/116/61 111/135/82 110/134/81 
f 93/116/61 94/117/62 112/136/83 111/135/82 
f 94/117/62 95/118/63 113/137/84 112/136/83 
f 95/118/63 96/119/64 114/138/85 113/137/84 
f 96/119/64 97/120/66 115/139/86 114/138/85 
f 97/120/66 98/121/68 116/140/87 115/139/86 
f 98/121/68 99/122/70 117/141/88 116/140/87 
f 99/122/70 83/105/46 101/124/72 117/141/88 
f 118/9/89 117/11/90 101/12/72 100/27/91 
f 118/9/89 100/27/91 102/25/92 103/26/74 
f 118/9/89 103/26/74 104/23/75 105/24/76 
f 118/9/89 105/24/76 106/21/77 107/22/78 
f 118/9/89 107/22/78 108/19/93 109/20/80 
f 118/9/89 109/20/80 110/17/94 111/18/95 
f 118/9/89 111/18/95 112/15/96 113/16/84 
f 118/9/89 113/16/84 114/13/85 115/14/86 
f 118/9/89 115/14/86 116/10/97 117/11/90 
s off
g _1
v -25.1109 -36.5877 9.57214
v -25.1109 -36.5877 -42.1628
v 23.3431 -36.5877 -42.1628
v 23.3431 -36.5877 9.57214
v -7.65704 15.1201 3.99075
v -6.88394 15.1201 4.76375
v 5.11606 15.1201 4.76375
v 5.88916 15.1201 3.99075
v 5.88916 15.1201 -5.37165
v 5.11606 15.1201 -6.14465
v -6.88394 15.1201 -6.14465
v -7.65704 15.1201 -5.37165
v -25.8839 -35.8147 10.3451
v 24.1161 -35.8147 10.3451
v 24.1161 -32.6679 10.3451
v -25.8839 -32.6679 10.3451
v 24.1161 -35.8147 -42.1628
v 24.1161 -32.6679 -42.1628
v 23.3431 -35.8147 -42.9358
v -25.8839 -35.8147 -42.9358
v -25.8839 -32.6679 -42.9358
v 23.3431 -32.6679 -42.9358
v -25.167 -31.6583 10.1786
v 20.1353 -31.2626 9.90034
v 13.6577 -29.1242 8.39624
v -16.2925 -28.7286 8.11794
v 23.382 -31.6526 9.38304
v 23.382 -31.6526 -40.9903
v 14.5419 -28.7343 -31.1248
v 14.5419 -28.7343 7.33034
v 22.4326 -31.6756 -42.1946
v -24.2004 -31.6756 -42.1946
v -14.8026 -28.492 -31.432
v 13.0348 -28.492 -31.432
v -25.1498 -31.6526 -40.9903
v -16.3097 -28.7343 -31.1248
v -14.8844 -28.1509 7.89294
v 13.1166 -28.1509 7.89294
v 9.02926 -26.1341 7.54644
v 7.56496 -25.7931 7.48784
v -9.33284 -25.7931 7.48784
v -10.7971 -26.1341 7.54644
v 13.1146 -28.1499 -28.5679
v 9.03126 -26.1351 -20.7474
v -9.63054 -25.9859 -21.7046
v 7.86266 -25.9859 -21.7046
v -14.8824 -28.1499 -28.5679
v -10.7991 -26.1351 -20.7474
v 8.22576 -25.0282 6.57994
v 8.22576 -25.0282 -19.2479
v 5.88916 -9.11308 -5.37166
v 5.88916 -9.11309 3.99074
v 7.47546 -25.215 -20.4428
v -9.24334 -25.215 -20.4428
v -6.88394 -9.11308 -6.14466
v 5.11606 -9.11308 -6.14466
v -6.88394 -9.11309 4.76374
v 5.11606 -9.11309 4.76374
v 5.11606 -1.04469 4.76374
v -6.88394 -1.04469 4.76374
v 5.88916 -1.04469 -5.37165
v 5.88916 -1.04469 3.99075
v -6.88394 -1.04469 -6.14465
v 5.11606 -1.04469 -6.14465
v -7.65704 -9.11308 -5.37166
v -7.65704 -9.11309 3.99074
v -7.65704 -1.04469 3.99075
v -7.65704 -1.04469 -5.37165
v 5.11606 6.13041 4.76374
v -6.88394 6.13041 4.76374
v 5.88916 6.13041 -5.37165
v 5.88916 6.13041 3.99075
v -6.88394 6.13041 -6.14465
v 5.11606 6.13041 -6.14465
v -7.65704 6.13041 3.99075
v -7.65704 6.13041 -5.37165
v -9.99364 -25.0282 -19.2479
v -10.6844 -25.9802 7.52094
v -9.99494 -25.0376 6.18664
vn 0 -1 -0
vn 0 1 0
vn 0 0 1
vn 0.0596 0.266 0.9621
vn 0.0007 0.0946 0.9955
vn 1 0 0
vn 0 0 -1
vn -1 0 0
vn -0.1313 0.6381 0.7586
vn 0.0967 0.6143 0.7831
vn 0.1413 0.6374 0.7574
vn -0.1979 0.8585 0.4731
vn 0.2461 0.8765 0.4137
vn 0.3084 0.9278 -0.21
vn 0.2465 0.9666 -0.0705
vn 0.3307 0.9159 0.2274
vn 0.2629 0.9187 -0.2946
vn -0.21 0.9472 -0.2422
vn -0.0877 0.9745 -0.2067
vn 0.0877 0.9745 -0.2067
vn -0.2664 0.95 -0.1632
vn -0.2466 0.9666 -0.0705
vn -0.2503 0.7926 0.556
vn 0.3099 0.7682 0.5602
vn 0.3654 0.616 0.6979
vn 0 0.1693 0.9856
vn -0.4255 0.6342 0.6456
vn 0.3086 0.9491 -0.063
vn 0.4459 0.8854 -0.1313
vn -0.1512 0.9397 -0.3066
vn 0.1512 0.9397 -0.3066
vn -0.3088 0.949 -0.063
vn -0.4458 0.8855 -0.1313
vn 0.9046 0.4262 0
vn 0.7559 0.6004 -0.2611
vn 0.9682 0.2113 -0.1342
vn 0.9971 0.0763 0
vn 0.2454 0.7965 -0.5526
vn -0.2454 0.7965 -0.5526
vn -0.3581 0.6474 -0.6727
vn 0.3581 0.6474 -0.6727
vn 0.5774 -0.5774 -0.5773
vn -0.3761 0.872 -0.3132
vn 0.4675 0.7798 -0.4163
vn 0.1367 0.7063 0.6946
vn -0.6955 0.6553 -0.2947
vn -0.7071 -0.7071 -0
vn 0 -0.7071 -0.7071
vn 0.7071 -0.7071 -0
vn 0 -0.7071 0.7071
vn 0.8104 0.5859 0
vn 0 0.5984 -0.8012
vn -0.8128 0.5825 -0.0001
vn 0.7071 0 -0.7071
vn -0.8078 0.5894 0.0001
vn 0.693 0.214 0.6885
vn 0.7041 0.1072 0.7019
vn 0.7041 0.108 0.7019
vn -0.6256 0.5651 -0.5379
vn 0.7071 -0 0.7072
vn 0.7071 0 -0.7072
vn -0.7071 0 -0.7072
vn -0.7334 0.0724 0.6759
vn -0.7071 -0 0.7072
vn -0.1026 0.8367 0.538
vn -0.7547 0.1443 0.64
vt 0.227 0.8705
vt 0.227 59.1295
vt -48.227 59.1295
vt -48.227 0.8705
vt 0 4.252
vt 2.8534 0
vt 47.1466 0
vt 50 4.252
vt 50 55.748
vt 47.1466 60
vt 2.8534 60
vt 0 55.748
vt 0 1.0901
vt 50 1.0901
vt 50 5.5277
vt 0 5.5277
vt 59.1295 1.0901
vt 59.1295 5.5277
vt 0.773 1.0901
vt 0.773 5.5277
vt 60 1.0901
vt 60 5.5277
vt 0 0
vt 47.9345 0
vt 50 1.206
vt 50 58.7316
vt 48.2656 60
vt 1.0192 60
vt 1.3154 60
vt 48.6846 60
vt 0 58.284
vt 50 0
vt 47.9043 0
vt 2.0957 0
vt 50 57.6593
vt 1.474 60
vt 47.6517 60
vt 0 56.7591
vt 50 3.3479
vt 50 57.8294
vt 47.4316 60
vt 2.1083 60
vt -53.8813 51.3692
vt -53.8813 50.0805
vt 52.0127 -0.4622
vt -2.0752 60.8022
vt 50.0276 63.082
vt 51.3357 62.1867
vt 0 56.1333
vt 59.1295 -0.7335
vt 0.8705 -0.7335
vt 49.257 -0.6645
vt 0.8025 -0.6472
vt 59.1022 -0.747
vt 0.8428 -0.7605
vt 49.227 -0.6351
vt 0.773 -0.6351
vt 0.7166 6.7441
vt 46.0204 6.5861
vt 1.0659 7.0918
vt 57.7915 7.1004
vt 1.7051 6.9991
vt 48.3384 6.9455
vt 2.1877 7.0111
vt 59.8148 7.1799
vt 2.3147 1.0901
vt 2.3147 5.5277
vt 0 2.4845
usemtl material_2
f 119/142/98 120/143/98 121/144/98 122/145/98 
f 123/146/99 124/147/99 125/148/99 126/149/99 127/150/99 128/151/99 129/152/99 130/153/99 
f 131/154/100 132/155/100 133/156/101 134/157/102 
f 132/154/103 135/158/103 136/159/103 133/157/103 
f 137/160/104 138/155/104 139/156/104 140/161/104 
f 138/154/105 131/162/105 134/163/105 139/157/105 
f 141/164/106 142/165/107 143/165/108 144/164/109 
f 145/166/110 146/167/111 147/167/112 148/166/113 
f 149/168/114 150/169/115 151/170/116 152/171/117 
f 153/172/118 141/164/106 144/164/109 154/172/119 
f 155/164/120 156/173/121 157/173/122 158/174/123 159/175/123 160/164/124 
f 156/173/121 161/176/125 162/176/126 157/173/122 
f 152/171/117 151/170/116 163/177/127 164/178/128 
f 165/179/129 155/164/120 160/164/124 166/179/130 
f 167/180/131 168/181/132 169/150/133 170/149/134 
f 171/182/135 172/183/136 173/152/137 174/151/138 
f 175/147/100 176/148/100 177/148/100 178/147/100 
f 170/149/134 169/150/133 179/150/103 180/149/103 
f 174/151/104 173/152/104 181/152/104 182/151/104 
f 183/153/105 184/146/105 185/146/105 186/153/105 
f 178/147/100 177/148/100 187/148/100 188/147/100 
f 180/149/103 179/150/103 189/150/103 190/149/103 
f 182/151/104 181/152/104 191/152/104 192/151/104 
f 186/153/105 185/146/105 193/146/105 194/153/105 
f 188/147/100 187/148/100 125/148/100 124/147/100 
f 190/149/103 189/150/103 127/150/103 126/149/103 
f 192/151/104 191/152/104 129/152/104 128/151/104 
f 194/153/105 193/146/105 123/146/105 130/153/105 
f 121/144/139 137/184/139 135/185/139 
f 133/186/101 145/166/110 142/165/107 
f 139/187/140 153/172/118 150/169/115 
f 140/188/141 149/168/114 146/167/111 136/189/141 
f 148/166/113 156/173/121 143/165/108 
f 152/171/117 161/176/125 147/167/112 
f 154/172/119 165/179/129 151/170/116 
f 157/173/142 167/180/142 158/174/142 
f 164/178/128 171/182/135 168/181/132 162/176/126 
f 166/179/130 195/190/143 172/183/136 163/177/127 
f 119/191/144 131/162/144 138/154/144 120/192/144 
f 120/193/145 138/155/145 137/160/145 121/194/145 
f 121/195/146 135/158/146 132/154/146 122/196/146 
f 122/197/147 132/155/147 131/154/147 119/198/147 
f 141/199/106 134/157/102 133/156/101 142/200/107 
f 145/201/148 133/157/148 136/159/148 146/202/148 
f 149/203/149 140/161/149 139/156/149 150/204/149 
f 153/205/150 139/157/150 134/163/150 141/206/150 
f 135/207/151 137/160/151 140/161/151 136/208/151 
f 155/164/120 144/164/109 143/165/108 156/173/121 
f 156/173/121 148/166/113 147/167/112 161/176/125 
f 165/179/129 154/172/119 144/164/109 155/164/120 
f 142/165/107 145/166/110 148/166/113 143/165/108 
f 146/167/111 149/168/114 152/171/117 147/167/112 
f 150/169/115 153/172/118 154/172/119 151/170/116 
f 167/180/131 157/173/122 162/176/126 168/181/132 
f 171/182/135 164/178/128 163/177/127 172/183/136 
f 195/190/143 166/179/130 160/164/124 196/164/152 197/209/152 
f 161/176/125 152/171/117 164/178/128 162/176/126 
f 151/170/116 165/179/129 166/179/130 163/177/127 
f 158/174/153 167/180/153 170/149/154 176/148/155 
f 168/181/132 171/182/135 174/151/138 169/150/133 
f 172/183/136 195/190/143 183/153/156 173/152/137 
f 176/148/155 170/149/154 180/149/157 177/148/157 
f 169/150/158 174/151/158 182/151/158 179/150/158 
f 173/152/159 183/153/159 186/153/159 181/152/159 
f 185/146/160 178/147/160 188/147/161 193/146/161 
f 177/148/157 180/149/157 190/149/157 187/148/157 
f 179/150/158 182/151/158 192/151/158 189/150/158 
f 181/152/159 186/153/159 194/153/159 191/152/159 
f 193/146/161 188/147/161 124/147/161 123/146/161 
f 187/148/157 190/149/157 126/149/157 125/148/157 
f 189/150/158 192/151/158 128/151/158 127/150/158 
f 191/152/159 194/153/159 130/153/159 129/152/159 
f 196/164/162 159/175/162 197/209/162 
f 197/209/163 159/175/163 175/147/163 178/147/160 185/146/160 184/146/163 
s off
